PathFileType  4	(X/Y/Z) subject11/noload/static/trial01/expdata
DataRate	CameraRate	NumFrames	NumMarkers	Units	OrigDataRate	OrigDataStartFrame	OrigNumFrames
100.0	100.0	4	64	mm	100.0	108	287
Frame#	Time	R.Shoulder			L.Shoulder			R.Clavicle			L.Clavicle			R.Biceps			R.Elbow			R.MElbow			R.Forearm			R.Wrist			L.Biceps			L.Elbow			L.MElbow			L.Forearm			L.Wrist			R.ASIS			L.ASIS			R.PSIS			S2			L.PSIS			R.TH1			R.TH2			R.TH3			R.Knee			R.MKnee			R.SH1			R.SH2			R.SH3			R.SH4			R.Ankle			R.MAnkle			R.Heel			R.MT5			R.Toe			L.TH1			L.TH2			L.TH3			L.TH4			L.Knee			L.MKnee			L.SH1			L.SH2			L.SH3			L.Ankle			L.MAnkle			L.Heel			L.MT5			L.Toe			R_HJC			L_HJC			L.HeelGround			L.ToeGround			L.MT5Ground			L.AnkleJoint			L.AnkleJointGround			L.KneeJoint			R.HeelGround			R.ToeGround			R.MT5Ground			R.AnkleJoint			R.AnkleJointGround			R.KneeJoint			MidASIS			MidPSIS			MidClavicle			
		X1	Y1	Z1	X2	Y2	Z2	X3	Y3	Z3	X4	Y4	Z4	X5	Y5	Z5	X6	Y6	Z6	X7	Y7	Z7	X8	Y8	Z8	X9	Y9	Z9	X10	Y10	Z10	X11	Y11	Z11	X12	Y12	Z12	X13	Y13	Z13	X14	Y14	Z14	X15	Y15	Z15	X16	Y16	Z16	X17	Y17	Z17	X18	Y18	Z18	X19	Y19	Z19	X20	Y20	Z20	X21	Y21	Z21	X22	Y22	Z22	X23	Y23	Z23	X24	Y24	Z24	X25	Y25	Z25	X26	Y26	Z26	X27	Y27	Z27	X28	Y28	Z28	X29	Y29	Z29	X30	Y30	Z30	X31	Y31	Z31	X32	Y32	Z32	X33	Y33	Z33	X34	Y34	Z34	X35	Y35	Z35	X36	Y36	Z36	X37	Y37	Z37	X38	Y38	Z38	X39	Y39	Z39	X40	Y40	Z40	X41	Y41	Z41	X42	Y42	Z42	X43	Y43	Z43	X44	Y44	Z44	X45	Y45	Z45	X46	Y46	Z46	X47	Y47	Z47	X48	Y48	Z48	X49	Y49	Z49	X50	Y50	Z50	X51	Y51	Z51	X52	Y52	Z52	X53	Y53	Z53	X54	Y54	Z54	X55	Y55	Z55	X56	Y56	Z56	X57	Y57	Z57	X58	Y58	Z58	X59	Y59	Z59	X60	Y60	Z60	X61	Y61	Z61	X62	Y62	Z62	X63	Y63	Z63	X64	Y64	Z64	

108	1.07000	465.023	1565.932	-276.050	747.764	1568.269	-262.468	572.845	1494.261	-188.746	628.316	1492.920	-185.101	253.057	1503.239	-272.503	151.725	1518.016	-300.627	169.076	1455.171	-365.161	136.562	1392.843	-207.012	117.187	1291.895	-145.344	932.839	1524.967	-248.528	1054.502	1500.424	-241.307	1044.125	1435.218	-304.625	1062.536	1394.719	-135.365	1059.580	1306.593	-67.377	457.989	1032.448	-147.776	715.766	1019.238	-148.713	542.766	1036.314	-355.659	585.589	1013.773	-367.412	632.080	1031.866	-355.578	374.534	799.973	-189.337	374.934	790.644	-298.287	390.874	662.015	-296.653	399.253	528.939	-254.892	528.963	502.422	-243.133	383.746	434.267	-247.854	371.097	322.676	-258.700	385.777	437.549	-331.945	378.899	317.966	-343.489	387.518	112.952	-304.873	473.158	110.519	-279.517	435.917	36.616	-377.724	340.581	39.662	-193.646	431.248	56.386	-78.202	796.023	821.918	-174.568	769.305	693.858	-169.162	807.969	827.715	-280.935	780.280	694.693	-287.313	760.194	532.084	-256.707	628.347	506.848	-275.607	761.487	424.801	-235.383	790.986	446.239	-326.927	798.536	330.756	-343.569	797.524	116.222	-297.051	711.434	111.936	-289.901	755.572	35.245	-384.842	838.371	36.467	-193.756	743.267	58.703	-89.696	473.362	940.698	-244.386	688.167	933.843	-240.865	755.572	0.000	-384.842	743.267	0.000	-89.696	838.371	0.000	-193.756	754.479	114.079	-293.476	754.479	0.000	-293.476	694.270	519.466	-266.157	435.917	0.000	-377.724	431.248	0.000	-78.202	340.581	0.000	-193.646	430.338	111.736	-292.195	430.338	0.000	-292.195	464.108	515.680	-249.012	586.877	1025.843	-148.245	587.423	1034.090	-355.618	600.581	1493.591	-186.923
109	1.08000	464.874	1565.877	-276.004	747.615	1568.308	-262.329	572.717	1494.207	-188.723	628.236	1492.857	-185.093	252.855	1503.091	-272.611	151.640	1517.820	-300.768	168.910	1454.920	-365.296	136.549	1392.560	-207.169	117.116	1291.566	-145.616	932.711	1524.984	-248.327	1054.425	1500.467	-241.115	1043.992	1435.260	-304.453	1062.502	1394.673	-135.212	1059.297	1306.536	-67.208	457.963	1032.475	-148.217	715.746	1019.200	-149.079	542.739	1036.403	-356.018	585.527	1013.716	-367.771	632.294	1031.885	-355.934	374.566	800.009	-189.763	374.938	790.693	-298.690	390.904	662.001	-297.070	399.374	528.812	-255.126	528.939	502.398	-243.193	383.996	434.230	-248.098	371.205	322.635	-258.926	385.783	437.512	-332.152	378.968	317.879	-343.637	387.517	112.935	-304.900	473.163	110.491	-279.536	435.969	36.557	-377.739	340.652	39.564	-193.614	431.286	56.310	-78.223	796.003	821.984	-174.791	769.506	693.963	-169.554	807.968	827.847	-281.227	780.298	694.721	-287.622	760.274	531.970	-256.894	628.579	506.728	-275.965	761.757	424.923	-235.555	790.984	446.244	-327.051	798.683	330.726	-343.732	797.544	116.194	-297.084	711.443	111.853	-289.921	755.648	35.170	-384.817	838.406	36.432	-193.773	743.273	58.635	-89.708	473.339	940.743	-244.801	688.141	933.813	-241.221	755.648	0.000	-384.817	743.273	0.000	-89.708	838.406	0.000	-193.773	754.494	114.023	-293.502	754.494	0.000	-293.502	694.427	519.349	-266.429	435.969	0.000	-377.739	431.286	0.000	-78.223	340.652	0.000	-193.614	430.340	111.713	-292.218	430.340	0.000	-292.218	464.156	515.605	-249.160	586.855	1025.838	-148.648	587.516	1034.144	-355.976	600.476	1493.532	-186.908
110	1.09000	464.776	1565.816	-275.945	747.495	1568.377	-262.158	572.488	1494.134	-188.714	628.125	1492.696	-185.076	252.680	1502.840	-272.721	151.459	1517.514	-300.882	168.758	1454.736	-365.418	136.467	1392.364	-207.331	117.028	1291.296	-145.849	932.590	1525.033	-248.169	1054.350	1500.522	-240.966	1043.890	1435.295	-304.339	1062.130	1394.708	-135.053	1059.002	1306.529	-67.053	457.928	1032.514	-148.669	715.687	1019.251	-149.435	542.754	1036.362	-356.434	585.659	1013.737	-368.129	632.335	1031.945	-356.305	374.588	799.961	-190.162	374.819	790.731	-299.066	390.922	661.977	-297.484	399.585	528.668	-255.409	528.943	502.384	-243.268	384.077	434.191	-248.372	371.083	322.718	-259.145	385.942	437.304	-332.375	378.885	317.860	-343.797	387.457	113.015	-304.935	473.183	110.420	-279.590	435.879	36.568	-377.719	340.632	39.480	-193.617	431.204	56.315	-78.215	796.168	822.060	-175.081	769.474	693.860	-169.936	808.388	828.007	-281.487	780.444	694.627	-287.909	760.478	532.110	-257.166	628.590	506.797	-276.085	761.930	424.858	-235.773	791.002	446.136	-327.187	798.698	330.584	-343.910	797.564	116.187	-297.105	711.444	111.787	-289.952	755.649	35.140	-384.820	838.542	36.457	-193.704	743.310	58.608	-89.698	473.361	940.751	-245.232	688.162	933.864	-241.549	755.649	0.000	-384.820	743.310	0.000	-89.698	838.542	0.000	-193.704	754.504	113.987	-293.529	754.504	0.000	-293.529	694.534	519.454	-266.625	435.879	0.000	-377.719	431.204	0.000	-78.215	340.632	0.000	-193.617	430.320	111.718	-292.262	430.320	0.000	-292.262	464.264	515.526	-249.339	586.808	1025.882	-149.052	587.544	1034.153	-356.370	600.307	1493.415	-186.895
111	1.10000	464.609	1565.766	-275.895	747.269	1568.461	-261.920	572.315	1494.107	-188.679	627.942	1492.679	-185.009	252.439	1502.738	-272.836	151.363	1517.254	-301.033	168.694	1454.605	-365.601	136.243	1392.129	-207.523	116.988	1291.084	-146.075	932.430	1525.061	-248.018	1054.150	1500.510	-240.856	1043.654	1435.370	-304.225	1061.996	1394.761	-134.908	1058.773	1306.642	-66.868	457.897	1032.539	-149.052	715.660	1019.265	-149.722	542.631	1036.402	-356.870	585.860	1013.722	-368.591	632.500	1031.975	-356.672	374.769	799.845	-190.519	374.863	790.770	-299.358	390.796	661.996	-297.835	399.586	528.701	-255.654	528.961	502.413	-243.359	384.048	434.123	-248.563	371.154	322.746	-259.286	385.781	437.382	-332.594	378.887	317.879	-343.885	387.434	112.939	-304.945	473.150	110.516	-279.547	435.852	36.511	-377.727	340.555	39.611	-193.640	431.201	56.336	-78.217	796.113	821.994	-175.380	769.608	693.987	-170.159	808.402	828.044	-281.801	780.642	694.709	-288.213	760.495	532.106	-257.389	628.937	506.601	-276.545	761.983	424.891	-235.918	791.084	446.137	-327.322	798.761	330.566	-344.003	797.562	116.204	-297.114	711.435	111.793	-289.980	755.650	35.146	-384.814	838.404	36.446	-193.772	743.274	58.611	-89.700	473.385	940.766	-245.675	688.185	933.886	-241.887	755.650	0.000	-384.814	743.274	0.000	-89.700	838.404	0.000	-193.772	754.498	113.999	-293.547	754.498	0.000	-293.547	694.716	519.353	-266.967	435.852	0.000	-377.727	431.201	0.000	-78.217	340.555	0.000	-193.640	430.292	111.727	-292.246	430.292	0.000	-292.246	464.274	515.557	-249.507	586.779	1025.902	-149.387	587.565	1034.188	-356.771	600.129	1493.393	-186.844
